<svg id="my-svg" width="100%" xmlns="http://www.w3.org/2000/svg" xmlns:xlink="http://www.w3.org/1999/xlink" class="flowchart" style="max-width: 1433.75px; background-color: transparent;" viewBox="0 0 1433.74560546875 292" role="graphics-document document" aria-roledescription="flowchart-v2"><style>#my-svg{font-family:"trebuchet ms",verdana,arial,sans-serif;font-size:16px;fill:#333;}@keyframes edge-animation-frame{from{stroke-dashoffset:0;}}@keyframes dash{to{stroke-dashoffset:0;}}#my-svg .edge-animation-slow{stroke-dasharray:9,5!important;stroke-dashoffset:900;animation:dash 50s linear infinite;stroke-linecap:round;}#my-svg .edge-animation-fast{stroke-dasharray:9,5!important;stroke-dashoffset:900;animation:dash 20s linear infinite;stroke-linecap:round;}#my-svg .error-icon{fill:#552222;}#my-svg .error-text{fill:#552222;stroke:#552222;}#my-svg .edge-thickness-normal{stroke-width:1px;}#my-svg .edge-thickness-thick{stroke-width:3.5px;}#my-svg .edge-pattern-solid{stroke-dasharray:0;}#my-svg .edge-thickness-invisible{stroke-width:0;fill:none;}#my-svg .edge-pattern-dashed{stroke-dasharray:3;}#my-svg .edge-pattern-dotted{stroke-dasharray:2;}#my-svg .marker{fill:#333333;stroke:#333333;}#my-svg .marker.cross{stroke:#333333;}#my-svg svg{font-family:"trebuchet ms",verdana,arial,sans-serif;font-size:16px;}#my-svg p{margin:0;}#my-svg .label{font-family:"trebuchet ms",verdana,arial,sans-serif;color:#333;}#my-svg .cluster-label text{fill:#333;}#my-svg .cluster-label span{color:#333;}#my-svg .cluster-label span p{background-color:transparent;}#my-svg .label text,#my-svg span{fill:#333;color:#333;}#my-svg .node rect,#my-svg .node circle,#my-svg .node ellipse,#my-svg .node polygon,#my-svg .node path{fill:#ECECFF;stroke:#9370DB;stroke-width:1px;}#my-svg .rough-node .label text,#my-svg .node .label text,#my-svg .image-shape .label,#my-svg .icon-shape .label{text-anchor:middle;}#my-svg .node .katex path{fill:#000;stroke:#000;stroke-width:1px;}#my-svg .rough-node .label,#my-svg .node .label,#my-svg .image-shape .label,#my-svg .icon-shape .label{text-align:center;}#my-svg .node.clickable{cursor:pointer;}#my-svg .root .anchor path{fill:#333333!important;stroke-width:0;stroke:#333333;}#my-svg .arrowheadPath{fill:#333333;}#my-svg .edgePath .path{stroke:#333333;stroke-width:1px;}#my-svg .flowchart-link{stroke:#333333;fill:none;}#my-svg .edgeLabel{background-color:rgba(232,232,232, 0.8);text-align:center;}#my-svg .edgeLabel p{background-color:rgba(232,232,232, 0.8);}#my-svg .edgeLabel rect{opacity:0.5;background-color:rgba(232,232,232, 0.8);fill:rgba(232,232,232, 0.8);}#my-svg .labelBkg{background-color:rgba(232, 232, 232, 0.5);}#my-svg .cluster rect{fill:#ffffde;stroke:#aaaa33;stroke-width:1px;}#my-svg .cluster text{fill:#333;}#my-svg .cluster span{color:#333;}#my-svg div.mermaidTooltip{position:absolute;text-align:center;max-width:200px;padding:2px;font-family:"trebuchet ms",verdana,arial,sans-serif;font-size:12px;background:hsl(80, 100%, 96.2745098039%);border:1px solid #aaaa33;border-radius:2px;pointer-events:none;z-index:100;}#my-svg .flowchartTitleText{text-anchor:middle;font-size:18px;fill:#333;}#my-svg rect.text{fill:none;stroke-width:0;}#my-svg .icon-shape,#my-svg .image-shape{background-color:rgba(232,232,232, 0.8);text-align:center;}#my-svg .icon-shape p,#my-svg .image-shape p{background-color:rgba(232,232,232, 0.8);padding:2px;}#my-svg .icon-shape .label rect,#my-svg .image-shape .label rect{opacity:0.5;background-color:rgba(232,232,232, 0.8);fill:rgba(232,232,232, 0.8);}#my-svg .label-icon{display:inline-block;height:1em;overflow:visible;vertical-align:-0.125em;}#my-svg .node .label-icon path{fill:currentColor;stroke:revert;stroke-width:revert;}#my-svg .node .neo-node{stroke:#9370DB;}#my-svg [data-look="neo"].node rect,#my-svg [data-look="neo"].cluster rect,#my-svg [data-look="neo"].node polygon{stroke:#9370DB;filter:drop-shadow(1px 2px 2px rgba(185, 185, 185, 1));}#my-svg [data-look="neo"].node path{stroke:#9370DB;stroke-width:1px;}#my-svg [data-look="neo"].node .outer-path{filter:drop-shadow(1px 2px 2px rgba(185, 185, 185, 1));}#my-svg [data-look="neo"].node .neo-line path{stroke:#9370DB;filter:none;}#my-svg [data-look="neo"].node circle{stroke:#9370DB;filter:drop-shadow(1px 2px 2px rgba(185, 185, 185, 1));}#my-svg [data-look="neo"].node circle .state-start{fill:#000000;}#my-svg [data-look="neo"].icon-shape .icon{fill:#9370DB;filter:drop-shadow(1px 2px 2px rgba(185, 185, 185, 1));}#my-svg [data-look="neo"].icon-shape .icon-neo path{stroke:#9370DB;filter:drop-shadow(1px 2px 2px rgba(185, 185, 185, 1));}#my-svg :root{--mermaid-font-family:"trebuchet ms",verdana,arial,sans-serif;}#my-svg .chunk&gt;*{fill:rgb(15, 23, 42)!important;stroke:rgb(56, 189, 248)!important;stroke-width:2px!important;color:rgb(224, 242, 254)!important;}#my-svg .chunk span{fill:rgb(15, 23, 42)!important;stroke:rgb(56, 189, 248)!important;stroke-width:2px!important;color:rgb(224, 242, 254)!important;}#my-svg .chunk tspan{fill:rgb(224, 242, 254)!important;}#my-svg .core&gt;*{fill:rgb(4, 47, 46)!important;stroke:rgb(45, 212, 191)!important;stroke-width:2px!important;color:rgb(204, 251, 241)!important;}#my-svg .core span{fill:rgb(4, 47, 46)!important;stroke:rgb(45, 212, 191)!important;stroke-width:2px!important;color:rgb(204, 251, 241)!important;}#my-svg .core tspan{fill:rgb(204, 251, 241)!important;}#my-svg .safe&gt;*{fill:rgb(19, 78, 74)!important;stroke:rgb(94, 234, 212)!important;stroke-width:2px!important;color:rgb(240, 253, 250)!important;}#my-svg .safe span{fill:rgb(19, 78, 74)!important;stroke:rgb(94, 234, 212)!important;stroke-width:2px!important;color:rgb(240, 253, 250)!important;}#my-svg .safe tspan{fill:rgb(240, 253, 250)!important;}</style><g><marker id="my-svg_flowchart-v2-pointEnd" class="marker flowchart-v2" viewBox="0 0 10 10" refX="5" refY="5" markerUnits="userSpaceOnUse" markerWidth="8" markerHeight="8" orient="auto"><path d="M 0 0 L 10 5 L 0 10 z" class="arrowMarkerPath" style="stroke-width: 1; stroke-dasharray: 1, 0;"/></marker><marker id="my-svg_flowchart-v2-pointStart" class="marker flowchart-v2" viewBox="0 0 10 10" refX="4.5" refY="5" markerUnits="userSpaceOnUse" markerWidth="8" markerHeight="8" orient="auto"><path d="M 0 5 L 10 10 L 10 0 z" class="arrowMarkerPath" style="stroke-width: 1; stroke-dasharray: 1, 0;"/></marker><marker id="my-svg_flowchart-v2-pointEnd-margin" class="marker flowchart-v2" viewBox="0 0 11.5 14" refX="11.5" refY="7" markerUnits="userSpaceOnUse" markerWidth="10.5" markerHeight="14" orient="auto"><path d="M 0 0 L 11.5 7 L 0 14 z" class="arrowMarkerPath" style="stroke-width: 0; stroke-dasharray: 1, 0;"/></marker><marker id="my-svg_flowchart-v2-pointStart-margin" class="marker flowchart-v2" viewBox="0 0 11.5 14" refX="1" refY="7" markerUnits="userSpaceOnUse" markerWidth="11.5" markerHeight="14" orient="auto"><polygon points="0,7 11.5,14 11.5,0" class="arrowMarkerPath" style="stroke-width: 0; stroke-dasharray: 1, 0;"/></marker><marker id="my-svg_flowchart-v2-circleEnd" class="marker flowchart-v2" viewBox="0 0 10 10" refX="11" refY="5" markerUnits="userSpaceOnUse" markerWidth="11" markerHeight="11" orient="auto"><circle cx="5" cy="5" r="5" class="arrowMarkerPath" style="stroke-width: 1; stroke-dasharray: 1, 0;"/></marker><marker id="my-svg_flowchart-v2-circleStart" class="marker flowchart-v2" viewBox="0 0 10 10" refX="-1" refY="5" markerUnits="userSpaceOnUse" markerWidth="11" markerHeight="11" orient="auto"><circle cx="5" cy="5" r="5" class="arrowMarkerPath" style="stroke-width: 1; stroke-dasharray: 1, 0;"/></marker><marker id="my-svg_flowchart-v2-circleEnd-margin" class="marker flowchart-v2" viewBox="0 0 10 10" refY="5" refX="12.25" markerUnits="userSpaceOnUse" markerWidth="14" markerHeight="14" orient="auto"><circle cx="5" cy="5" r="5" class="arrowMarkerPath" style="stroke-width: 0; stroke-dasharray: 1, 0;"/></marker><marker id="my-svg_flowchart-v2-circleStart-margin" class="marker flowchart-v2" viewBox="0 0 10 10" refX="-2" refY="5" markerUnits="userSpaceOnUse" markerWidth="14" markerHeight="14" orient="auto"><circle cx="5" cy="5" r="5" class="arrowMarkerPath" style="stroke-width: 0; stroke-dasharray: 1, 0;"/></marker><marker id="my-svg_flowchart-v2-crossEnd" class="marker cross flowchart-v2" viewBox="0 0 11 11" refX="12" refY="5.2" markerUnits="userSpaceOnUse" markerWidth="11" markerHeight="11" orient="auto"><path d="M 1,1 l 9,9 M 10,1 l -9,9" class="arrowMarkerPath" style="stroke-width: 2; stroke-dasharray: 1, 0;"/></marker><marker id="my-svg_flowchart-v2-crossStart" class="marker cross flowchart-v2" viewBox="0 0 11 11" refX="-1" refY="5.2" markerUnits="userSpaceOnUse" markerWidth="11" markerHeight="11" orient="auto"><path d="M 1,1 l 9,9 M 10,1 l -9,9" class="arrowMarkerPath" style="stroke-width: 2; stroke-dasharray: 1, 0;"/></marker><marker id="my-svg_flowchart-v2-crossEnd-margin" class="marker cross flowchart-v2" viewBox="0 0 15 15" refX="17.7" refY="7.5" markerUnits="userSpaceOnUse" markerWidth="12" markerHeight="12" orient="auto"><path d="M 1,1 L 14,14 M 1,14 L 14,1" class="arrowMarkerPath" style="stroke-width: 2.5;"/></marker><marker id="my-svg_flowchart-v2-crossStart-margin" class="marker cross flowchart-v2" viewBox="0 0 15 15" refX="-3.5" refY="7.5" markerUnits="userSpaceOnUse" markerWidth="12" markerHeight="12" orient="auto"><path d="M 1,1 L 14,14 M 1,14 L 14,1" class="arrowMarkerPath" style="stroke-width: 2.5; stroke-dasharray: 1, 0;"/></marker><g class="root"><g class="clusters"><g class="cluster" id="my-svg-OUT" data-look="classic"><rect style="" x="1198.328125" y="91.5" width="227.41746520996094" height="109"/><g class="cluster-label" transform="translate(1267.7868576049805, 91.5)"><foreignObject width="88.5" height="24"><div xmlns="http://www.w3.org/1999/xhtml" style="display: table-cell; white-space: nowrap; line-height: 1.5;"><span class="nodeLabel"><p>Downstream</p></span></div></foreignObject></g></g><g class="cluster" id="my-svg-BUFFER" data-look="classic"><rect style="" x="252.953125" y="25" width="895.375" height="232"/><g class="cluster-label" transform="translate(641.5078125, 25)"><foreignObject width="118.265625" height="24"><div xmlns="http://www.w3.org/1999/xhtml" style="display: table-cell; white-space: nowrap; line-height: 1.5;"><span class="nodeLabel"><p>Byte guard state</p></span></div></foreignObject></g></g><g class="cluster" id="my-svg-CHUNKS" data-look="classic"><rect style="" x="8" y="8" width="194.953125" height="276"/><g class="cluster-label" transform="translate(50.2890625, 8)"><foreignObject width="110.375" height="24"><div xmlns="http://www.w3.org/1999/xhtml" style="display: table-cell; white-space: nowrap; line-height: 1.5;"><span class="nodeLabel"><p>TCP chunk split</p></span></div></foreignObject></g></g></g><g class="edgePaths"><path d="M177.953,82L182.12,82C186.286,82,194.62,82,202.953,82C211.286,82,219.62,82,227.953,82C236.286,82,244.62,82,261.449,87.886C278.278,93.771,303.602,105.543,316.264,111.428L328.926,117.314" id="my-svg-L_C1_LOOK_0" class="edge-thickness-normal edge-pattern-solid edge-thickness-normal edge-pattern-solid flowchart-link" style=";" data-edge="true" data-et="edge" data-id="L_C1_LOOK_0" data-points="W3sieCI6MTc3Ljk1MzEyNSwieSI6ODJ9LHsieCI6MjAyLjk1MzEyNSwieSI6ODJ9LHsieCI6MjI3Ljk1MzEyNSwieSI6ODJ9LHsieCI6MjUyLjk1MzEyNSwieSI6ODJ9LHsieCI6MzMyLjU1MzcxMDkzNzUsInkiOjExOX1d" data-look="classic" marker-end="url(#my-svg_flowchart-v2-pointEnd)"/><path d="M170.695,210L176.072,210C181.448,210,192.201,210,201.743,210C211.286,210,219.62,210,227.953,210C236.286,210,244.62,210,261.449,204.114C278.278,198.229,303.602,186.457,316.264,180.572L328.926,174.686" id="my-svg-L_C2_LOOK_0" class="edge-thickness-normal edge-pattern-solid edge-thickness-normal edge-pattern-solid flowchart-link" style=";" data-edge="true" data-et="edge" data-id="L_C2_LOOK_0" data-points="W3sieCI6MTcwLjY5NTMxMjUsInkiOjIxMH0seyJ4IjoyMDIuOTUzMTI1LCJ5IjoyMTB9LHsieCI6MjI3Ljk1MzEyNSwieSI6MjEwfSx7IngiOjI1Mi45NTMxMjUsInkiOjIxMH0seyJ4IjozMzIuNTUzNzEwOTM3NSwieSI6MTczfV0=" data-look="classic" marker-end="url(#my-svg_flowchart-v2-pointEnd)"/><path d="M503.328,146L507.495,146C511.661,146,519.995,146,527.661,146C535.328,146,542.328,146,545.828,146L549.328,146" id="my-svg-L_LOOK_SCAN_0" class="edge-thickness-normal edge-pattern-solid edge-thickness-normal edge-pattern-solid flowchart-link" style=";" data-edge="true" data-et="edge" data-id="L_LOOK_SCAN_0" data-points="W3sieCI6NTAzLjMyODEyNSwieSI6MTQ2fSx7IngiOjUyOC4zMjgxMjUsInkiOjE0Nn0seyJ4Ijo1NTMuMzI4MTI1LCJ5IjoxNDZ9XQ==" data-look="classic" marker-end="url(#my-svg_flowchart-v2-pointEnd)"/><path d="M813.328,146L817.495,146C821.661,146,829.995,146,837.661,146C845.328,146,852.328,146,855.828,146L859.328,146" id="my-svg-L_SCAN_REDACT_0" class="edge-thickness-normal edge-pattern-solid edge-thickness-normal edge-pattern-solid flowchart-link" style=";" data-edge="true" data-et="edge" data-id="L_SCAN_REDACT_0" data-points="W3sieCI6ODEzLjMyODEyNSwieSI6MTQ2fSx7IngiOjgzOC4zMjgxMjUsInkiOjE0Nn0seyJ4Ijo4NjMuMzI4MTI1LCJ5IjoxNDZ9XQ==" data-look="classic" marker-end="url(#my-svg_flowchart-v2-pointEnd)"/><path d="M1123.328,146L1127.495,146C1131.661,146,1139.995,146,1148.328,146C1156.661,146,1164.995,146,1173.328,146C1181.661,146,1189.995,146,1197.745,146.07C1205.495,146.141,1212.662,146.281,1216.245,146.351L1219.829,146.422" id="my-svg-L_REDACT_SAFE_0" class="edge-thickness-normal edge-pattern-solid edge-thickness-normal edge-pattern-solid flowchart-link" style=";" data-edge="true" data-et="edge" data-id="L_REDACT_SAFE_0" data-points="W3sieCI6MTEyMy4zMjgxMjUsInkiOjE0Nn0seyJ4IjoxMTQ4LjMyODEyNSwieSI6MTQ2fSx7IngiOjExNzMuMzI4MTI1LCJ5IjoxNDZ9LHsieCI6MTE5OC4zMjgxMjUsInkiOjE0Nn0seyJ4IjoxMjIzLjgyODEyNDk5OTk4ODYsInkiOjE0Ni41fV0=" data-look="classic" marker-end="url(#my-svg_flowchart-v2-pointEnd)"/></g><g class="edgeLabels"><g class="edgeLabel"><g class="label" data-id="L_C1_LOOK_0" transform="translate(0, 0)"><foreignObject width="0" height="0"><div xmlns="http://www.w3.org/1999/xhtml" class="labelBkg" style="display: table-cell; white-space: nowrap; line-height: 1.5; max-width: 200px; text-align: center;"><span class="edgeLabel"></span></div></foreignObject></g></g><g class="edgeLabel"><g class="label" data-id="L_C2_LOOK_0" transform="translate(0, 0)"><foreignObject width="0" height="0"><div xmlns="http://www.w3.org/1999/xhtml" class="labelBkg" style="display: table-cell; white-space: nowrap; line-height: 1.5; max-width: 200px; text-align: center;"><span class="edgeLabel"></span></div></foreignObject></g></g><g class="edgeLabel"><g class="label" data-id="L_LOOK_SCAN_0" transform="translate(0, 0)"><foreignObject width="0" height="0"><div xmlns="http://www.w3.org/1999/xhtml" class="labelBkg" style="display: table-cell; white-space: nowrap; line-height: 1.5; max-width: 200px; text-align: center;"><span class="edgeLabel"></span></div></foreignObject></g></g><g class="edgeLabel"><g class="label" data-id="L_SCAN_REDACT_0" transform="translate(0, 0)"><foreignObject width="0" height="0"><div xmlns="http://www.w3.org/1999/xhtml" class="labelBkg" style="display: table-cell; white-space: nowrap; line-height: 1.5; max-width: 200px; text-align: center;"><span class="edgeLabel"></span></div></foreignObject></g></g><g class="edgeLabel"><g class="label" data-id="L_REDACT_SAFE_0" transform="translate(0, 0)"><foreignObject width="0" height="0"><div xmlns="http://www.w3.org/1999/xhtml" class="labelBkg" style="display: table-cell; white-space: nowrap; line-height: 1.5; max-width: 200px; text-align: center;"><span class="edgeLabel"></span></div></foreignObject></g></g></g><g class="nodes"><g class="node default chunk" id="my-svg-flowchart-C1-0" data-look="classic" transform="translate(105.4765625, 82)"><rect class="basic label-container" style="fill:#0f172a !important;stroke:#38bdf8 !important;stroke-width:2px !important" x="-72.4765625" y="-39" width="144.953125" height="78"/><g class="label" style="color:#e0f2fe !important" transform="translate(-42.4765625, -24)"><rect/><foreignObject width="84.953125" height="48"><div style="color: rgb(224, 242, 254) !important; display: table-cell; white-space: nowrap; line-height: 1.5; max-width: 200px; text-align: center;" xmlns="http://www.w3.org/1999/xhtml"><span style="color:#e0f2fe !important" class="nodeLabel"><p>chunk 1<br />…sk-proj-ab</p></span></div></foreignObject></g></g><g class="node default chunk" id="my-svg-flowchart-C2-1" data-look="classic" transform="translate(105.4765625, 210)"><rect class="basic label-container" style="fill:#0f172a !important;stroke:#38bdf8 !important;stroke-width:2px !important" x="-65.21875" y="-39" width="130.4375" height="78"/><g class="label" style="color:#e0f2fe !important" transform="translate(-35.21875, -24)"><rect/><foreignObject width="70.4375" height="48"><div style="color: rgb(224, 242, 254) !important; display: table-cell; white-space: nowrap; line-height: 1.5; max-width: 200px; text-align: center;" xmlns="http://www.w3.org/1999/xhtml"><span style="color:#e0f2fe !important" class="nodeLabel"><p>chunk 2<br />cdefghij…</p></span></div></foreignObject></g></g><g class="node default core" id="my-svg-flowchart-LOOK-2" data-look="classic" transform="translate(390.640625, 146)"><rect class="basic label-container" style="fill:#042f2e !important;stroke:#2dd4bf !important;stroke-width:2px !important" x="-112.6875" y="-27" width="225.375" height="54"/><g class="label" style="color:#ccfbf1 !important" transform="translate(-82.6875, -12)"><rect/><foreignObject width="165.375" height="24"><div style="color: rgb(204, 251, 241) !important; display: table-cell; white-space: nowrap; line-height: 1.5; max-width: 200px; text-align: center;" xmlns="http://www.w3.org/1999/xhtml"><span style="color:#ccfbf1 !important" class="nodeLabel"><p>Rolling lookback buffer</p></span></div></foreignObject></g></g><g class="node default core" id="my-svg-flowchart-SCAN-3" data-look="classic" transform="translate(683.328125, 146)"><rect class="basic label-container" style="fill:#042f2e !important;stroke:#2dd4bf !important;stroke-width:2px !important" x="-130" y="-39" width="260" height="78"/><g class="label" style="color:#ccfbf1 !important" transform="translate(-100, -24)"><rect/><foreignObject width="200" height="48"><div style="color: rgb(204, 251, 241) !important; display: table; white-space: break-spaces; line-height: 1.5; max-width: 200px; text-align: center; width: 200px;" xmlns="http://www.w3.org/1999/xhtml"><span style="color:#ccfbf1 !important" class="nodeLabel"><p>Pattern scan · byte-preserving</p></span></div></foreignObject></g></g><g class="node default core" id="my-svg-flowchart-REDACT-4" data-look="classic" transform="translate(993.328125, 146)"><rect class="basic label-container" style="fill:#042f2e !important;stroke:#2dd4bf !important;stroke-width:2px !important" x="-130" y="-39" width="260" height="78"/><g class="label" style="color:#ccfbf1 !important" transform="translate(-100, -24)"><rect/><foreignObject width="200" height="48"><div style="color: rgb(204, 251, 241) !important; display: table; white-space: break-spaces; line-height: 1.5; max-width: 200px; text-align: center; width: 200px;" xmlns="http://www.w3.org/1999/xhtml"><span style="color:#ccfbf1 !important" class="nodeLabel"><p>Replace match → REDACTED</p></span></div></foreignObject></g></g><g class="node default safe" id="my-svg-flowchart-SAFE-5" data-look="classic" transform="translate(1312.0368576049805, 146)"><g class="basic label-container outer-path"><path d="M-69.21875 -19.5 C-23.037278755115906 -19.5, 23.144192489768187 -19.5, 69.21875 -19.5 C69.21875 -19.5, 69.21875 -19.5, 69.21875 -19.5 C69.65960758808187 -19.485862555227452, 70.10046517616374 -19.47172511045491, 70.4681192896239 -19.45993515863156 C70.891364608128 -19.419105191782435, 71.31460992663212 -19.37827522493331, 71.71235465284786 -19.3399052695533 C72.00584260308554 -19.292456413791918, 72.29933055332322 -19.245007558030537, 72.94634325967675 -19.140403561325776 C73.38630272645867 -19.039985684036633, 73.82626219324057 -18.939567806747494, 74.16501438623538 -18.862249829261074 C74.42203433871548 -18.785967656490243, 74.67905429119558 -18.70968548371941, 75.3633602514606 -18.50658706670804 C75.80843117507743 -18.34279685262653, 76.25350209869424 -18.179006638545026, 76.5364565951478 -18.074876768247425 C76.93559595833486 -17.898189612213045, 77.33473532152192 -17.721502456178666, 77.67948291279238 -17.568892924097174 C78.0814201943437 -17.35920250176496, 78.48335747589505 -17.149512079432746, 78.78774226407678 -16.990714730406097 C79.12275681646904 -16.787626939981877, 79.45777136886127 -16.584539149557656, 79.8566805736057 -16.342718045390892 C80.15973225662103 -16.131322310215317, 80.46278393963635 -15.919926575039746, 80.88190534457871 -15.627565626425154 C81.22757533705429 -15.351903006090701, 81.57324532952987 -15.076240385756247, 81.85920370850187 -14.848196188198123 C82.08426680387106 -14.643799839827015, 82.30932989924025 -14.439403491455904, 82.78455973676799 -14.007812326905688 C82.99308682733157 -13.792490985506264, 83.20161391789514 -13.577169644106842, 83.65417094296865 -13.10986736009568 C83.85870572135147 -12.869609171048634, 84.06324049973428 -12.629350982001588, 84.46446390812658 -12.158051136245305 C84.61819483688663 -11.95206569688255, 84.7719257656467 -11.746080257519791, 85.21210896464063 -11.156274872382312 C85.41449685901894 -10.84535271785805, 85.61688475339724 -10.534430563333789, 85.89403387860425 -10.108655082055241 C86.09282415597949 -9.755682814877131, 86.29161443335472 -9.402710547699023, 86.5074364742735 -9.019496659696287 C86.6836041956175 -8.65368061694007, 86.8597719169615 -8.287864574183853, 87.04979614880834 -7.893275190886684 C87.18630327567912 -7.556099948330112, 87.32281040254989 -7.2189247057735395, 87.51888422997033 -6.734618561215508 C87.63666818176344 -6.379872064738845, 87.75445213355655 -6.025125568262183, 87.91277313421489 -5.548287939305138 C88.0277929797738 -5.109667418272578, 88.14281282533273 -4.671046897240019, 88.22984428754556 -4.339158212148133 C88.31747401379612 -3.889198088400713, 88.40510374004667 -3.4392379646532922, 88.46879477658177 -3.1121979531509023 C88.5237138301146 -2.6862566189441104, 88.57863288364742 -2.2603152847373185, 88.62864270250937 -1.872449005199798 C88.64809715624939 -1.569430184846552, 88.66755160998942 -1.266411364493306, 88.70873121591342 -0.6250057626472757 C88.70873121591342 -0.33180983457787183, 88.70873121591342 -0.038613906508467966, 88.70873121591342 0.625005762647271 C88.68588501487659 0.980853784917397, 88.66303881383976 1.3367018071875232, 88.62864270250937 1.8724490051997846 C88.56716606888872 2.349249635627044, 88.50568943526808 2.8260502660543034, 88.46879477658177 3.1121979531508885 C88.40056003057526 3.4625689524756798, 88.33232528456874 3.8129399518004705, 88.22984428754556 4.339158212148129 C88.10437003448075 4.817645919969549, 87.97889578141593 5.29613362779097, 87.91277313421489 5.548287939305125 C87.78573101618582 5.930918557396008, 87.65868889815675 6.313549175486891, 87.51888422997033 6.734618561215495 C87.42198945681811 6.973950524234448, 87.32509468366591 7.213282487253402, 87.04979614880834 7.893275190886679 C86.85302795740523 8.301868550500076, 86.65625976600212 8.710461910113475, 86.5074364742735 9.019496659696284 C86.38057837854677 9.244746054434223, 86.25372028282005 9.469995449172163, 85.89403387860425 10.108655082055236 C85.75368880028407 10.32426281028538, 85.61334372196387 10.53987053851552, 85.21210896464065 11.156274872382301 C85.03361653525576 11.39543846676322, 84.85512410587086 11.634602061144141, 84.46446390812659 12.158051136245302 C84.28818181105474 12.365122118201382, 84.11189971398288 12.572193100157463, 83.65417094296866 13.10986736009567 C83.36715036289311 13.406239673851548, 83.08012978281755 13.702611987607426, 82.78455973676799 14.007812326905684 C82.507869065389 14.25909547381809, 82.23117839401 14.5103786207305, 81.8592037085019 14.848196188198111 C81.64616417357867 15.01808954807926, 81.43312463865546 15.18798290796041, 80.88190534457871 15.627565626425152 C80.47513658978265 15.911309901035294, 80.06836783498659 16.195054175645435, 79.8566805736057 16.34271804539089 C79.58337557855003 16.50839713951206, 79.31007058349437 16.674076233633233, 78.78774226407678 16.990714730406093 C78.50934957061602 17.13595202026554, 78.23095687715526 17.28118931012499, 77.67948291279238 17.56889292409717 C77.24266563915756 17.762258973411267, 76.80584836552275 17.955625022725368, 76.5364565951478 18.07487676824742 C76.28014106755957 18.169203251754652, 76.02382553997134 18.263529735261887, 75.36336025146062 18.506587066708033 C75.00768032769624 18.612151001079283, 74.65200040393185 18.717714935450537, 74.16501438623541 18.86224982926107 C73.70277825852227 18.967752209038967, 73.24054213080913 19.073254588816862, 72.94634325967677 19.140403561325773 C72.45649090886911 19.219599090542637, 71.96663855806146 19.2987946197595, 71.71235465284788 19.3399052695533 C71.40422332151664 19.36963032850468, 71.09609199018541 19.39935538745606, 70.4681192896239 19.45993515863156 C70.01346657232571 19.474514986347483, 69.55881385502752 19.489094814063407, 69.21875 19.5 C69.21875 19.5, 69.21875 19.5, 69.21875 19.5 C20.143927386162986 19.5, -28.93089522767403 19.5, -69.21875 19.5 C-69.61975236012121 19.487140634814658, -70.02075472024241 19.474281269629312, -70.4681192896239 19.45993515863156 C-70.77418040676564 19.430409810753243, -71.08024152390738 19.400884462874927, -71.71235465284786 19.3399052695533 C-72.03233605678146 19.288173157658164, -72.35231746071504 19.23644104576303, -72.94634325967675 19.140403561325773 C-73.2353521182311 19.074439175319796, -73.52436097678547 19.008474789313816, -74.16501438623538 18.862249829261074 C-74.49650620472447 18.76386479756958, -74.82799802321355 18.66547976587808, -75.36336025146059 18.506587066708043 C-75.79093941332886 18.349233982642076, -76.21851857519714 18.19188089857611, -76.5364565951478 18.074876768247425 C-76.94456900203986 17.894217511940724, -77.35268140893191 17.713558255634027, -77.67948291279238 17.568892924097174 C-77.92048301931318 17.443163322893213, -78.16148312583397 17.317433721689248, -78.78774226407678 16.990714730406097 C-79.14088797627065 16.77663572435961, -79.49403368846453 16.562556718313125, -79.85668057360569 16.3427180453909 C-80.18245838383825 16.115469547666773, -80.5082361940708 15.88822104994265, -80.88190534457871 15.627565626425156 C-81.08590928125042 15.464877915702214, -81.28991321792213 15.30219020497927, -81.85920370850187 14.848196188198125 C-82.12367404829418 14.60801122310049, -82.38814438808649 14.367826258002857, -82.78455973676797 14.007812326905697 C-83.02469950371116 13.759848301695326, -83.26483927065435 13.511884276484956, -83.65417094296865 13.109867360095677 C-83.932147731484 12.783340006978207, -84.21012451999933 12.456812653860739, -84.46446390812658 12.158051136245307 C-84.70788344487421 11.83189113297948, -84.95130298162184 11.505731129713654, -85.21210896464063 11.156274872382316 C-85.3600741977221 10.928960540140787, -85.50803943080356 10.701646207899259, -85.89403387860425 10.108655082055249 C-86.03572814504571 9.8570625638881, -86.17742241148717 9.605470045720953, -86.5074364742735 9.019496659696289 C-86.715120013871 8.588237346006194, -86.92280355346851 8.156978032316099, -87.04979614880834 7.893275190886686 C-87.14631393396704 7.654874395500278, -87.24283171912573 7.4164736001138705, -87.51888422997033 6.73461856121551 C-87.62757610665071 6.407255946352982, -87.73626798333108 6.079893331490455, -87.91277313421489 5.5482879393051325 C-88.02748226954546 5.110852291035897, -88.14219140487604 4.673416642766662, -88.22984428754556 4.339158212148136 C-88.27958622323091 4.0837438853657035, -88.32932815891625 3.8283295585832713, -88.46879477658177 3.112197953150904 C-88.50654944632453 2.8193801901288906, -88.5443041160673 2.5265624271068767, -88.62864270250937 1.872449005199809 C-88.6606628875042 1.373708777677145, -88.69268307249904 0.8749685501544812, -88.70873121591342 0.6250057626472781 C-88.70873121591342 0.32425125117961223, -88.70873121591342 0.023496739711946324, -88.70873121591342 -0.6250057626472687 C-88.67988459631977 -1.0743151473905979, -88.65103797672612 -1.5236245321339268, -88.62864270250937 -1.8724490051997822 C-88.58446690936329 -2.21506773334378, -88.54029111621719 -2.5576864614877772, -88.46879477658177 -3.112197953150895 C-88.41877868415907 -3.369020016836618, -88.36876259173636 -3.6258420805223404, -88.22984428754556 -4.339158212148126 C-88.16092525734618 -4.601976343995025, -88.09200622714678 -4.864794475841925, -87.91277313421489 -5.548287939305123 C-87.81806228604759 -5.833541923860643, -87.7233514378803 -6.118795908416164, -87.51888422997033 -6.734618561215485 C-87.35885439292609 -7.129895352681151, -87.19882455588187 -7.525172144146818, -87.04979614880834 -7.893275190886676 C-86.8417807441422 -8.325223629492575, -86.63376533947606 -8.757172068098473, -86.5074364742735 -9.019496659696282 C-86.27349809170785 -9.434877946771554, -86.03955970914221 -9.850259233846826, -85.89403387860425 -10.108655082055243 C-85.729636267894 -10.361213959045822, -85.56523865718374 -10.613772836036398, -85.21210896464063 -11.156274872382308 C-84.98679779871837 -11.458171308448671, -84.76148663279609 -11.760067744515034, -84.46446390812659 -12.158051136245302 C-84.20105816701341 -12.467462507968106, -83.93765242590024 -12.776873879690909, -83.65417094296866 -13.10986736009567 C-83.32615960396097 -13.448565997852873, -82.99814826495329 -13.787264635610073, -82.78455973676799 -14.007812326905677 C-82.46364510528873 -14.299258504279276, -82.1427304738095 -14.590704681652875, -81.8592037085019 -14.848196188198107 C-81.62645689135661 -15.033805581218553, -81.39371007421131 -15.219414974238997, -80.88190534457871 -15.627565626425149 C-80.62254626141315 -15.808483295367688, -80.3631871782476 -15.989400964310226, -79.85668057360571 -16.342718045390885 C-79.59477063179774 -16.50148939126854, -79.33286068998976 -16.660260737146196, -78.78774226407678 -16.99071473040609 C-78.35690951805822 -17.215479898042435, -77.92607677203965 -17.440245065678784, -77.6794829127924 -17.56889292409717 C-77.33057585936517 -17.723343726689397, -76.98166880593794 -17.877794529281623, -76.53645659514781 -18.07487676824742 C-76.12729727596013 -18.225451179935774, -75.71813795677244 -18.376025591624124, -75.36336025146062 -18.506587066708033 C-75.07176351709867 -18.593131446844165, -74.78016678273673 -18.6796758269803, -74.16501438623541 -18.862249829261067 C-73.8995054411762 -18.922850513363045, -73.633996496117 -18.98345119746502, -72.94634325967677 -19.140403561325773 C-72.5078759324311 -19.211291558429945, -72.06940860518546 -19.282179555534114, -71.71235465284788 -19.3399052695533 C-71.24103799562934 -19.38537262063396, -70.76972133841082 -19.43083997171462, -70.4681192896239 -19.45993515863156 C-70.04150329246129 -19.4736159033029, -69.61488729529869 -19.48729664797424, -69.21875 -19.5 C-69.21875 -19.5, -69.21875 -19.5, -69.21875 -19.5" stroke="none" stroke-width="0" fill="#134e4a" style="fill:#134e4a !important;stroke:#5eead4 !important;stroke-width:2px !important"/><path d="M-69.21875 -19.5 C-31.712469726139688 -19.5, 5.793810547720625 -19.5, 69.21875 -19.5 M-69.21875 -19.5 C-28.86793792102359 -19.5, 11.482874157952821 -19.5, 69.21875 -19.5 M69.21875 -19.5 C69.21875 -19.5, 69.21875 -19.5, 69.21875 -19.5 M69.21875 -19.5 C69.21875 -19.5, 69.21875 -19.5, 69.21875 -19.5 M69.21875 -19.5 C69.50332189797369 -19.49087433311758, 69.78789379594737 -19.481748666235163, 70.4681192896239 -19.45993515863156 M69.21875 -19.5 C69.5454385349289 -19.48952373454549, 69.87212706985781 -19.479047469090975, 70.4681192896239 -19.45993515863156 M70.4681192896239 -19.45993515863156 C70.95122509733964 -19.41333052238096, 71.4343309050554 -19.36672588613036, 71.71235465284786 -19.3399052695533 M70.4681192896239 -19.45993515863156 C70.72834874905823 -19.434831135651642, 70.98857820849257 -19.409727112671728, 71.71235465284786 -19.3399052695533 M71.71235465284786 -19.3399052695533 C72.04163916773706 -19.286669102825567, 72.37092368262626 -19.23343293609783, 72.94634325967675 -19.140403561325776 M71.71235465284786 -19.3399052695533 C71.97438325945569 -19.29754251649914, 72.23641186606352 -19.25517976344498, 72.94634325967675 -19.140403561325776 M72.94634325967675 -19.140403561325776 C73.26881323867433 -19.06680189293285, 73.5912832176719 -18.993200224539926, 74.16501438623538 -18.862249829261074 M72.94634325967675 -19.140403561325776 C73.24075813575368 -19.07320528709783, 73.53517301183061 -19.006007012869887, 74.16501438623538 -18.862249829261074 M74.16501438623538 -18.862249829261074 C74.4781532609473 -18.76931185494608, 74.79129213565919 -18.67637388063108, 75.3633602514606 -18.50658706670804 M74.16501438623538 -18.862249829261074 C74.56420924270604 -18.743770891277144, 74.96340409917671 -18.625291953293214, 75.3633602514606 -18.50658706670804 M75.3633602514606 -18.50658706670804 C75.75095954540596 -18.363946943607548, 76.13855883935133 -18.22130682050706, 76.5364565951478 -18.074876768247425 M75.3633602514606 -18.50658706670804 C75.81505896398431 -18.34035776504219, 76.266757676508 -18.17412846337634, 76.5364565951478 -18.074876768247425 M76.5364565951478 -18.074876768247425 C76.96988141912753 -17.883012455762188, 77.40330624310725 -17.69114814327695, 77.67948291279238 -17.568892924097174 M76.5364565951478 -18.074876768247425 C76.85198868985958 -17.935200069845546, 77.16752078457137 -17.79552337144367, 77.67948291279238 -17.568892924097174 M77.67948291279238 -17.568892924097174 C77.99701692627305 -17.403235632654557, 78.3145509397537 -17.237578341211936, 78.78774226407678 -16.990714730406097 M77.67948291279238 -17.568892924097174 C77.91190740481301 -17.447637215485006, 78.14433189683363 -17.32638150687284, 78.78774226407678 -16.990714730406097 M78.78774226407678 -16.990714730406097 C79.18865257791171 -16.747680542148846, 79.58956289174664 -16.50464635389159, 79.8566805736057 -16.342718045390892 M78.78774226407678 -16.990714730406097 C79.01223026440293 -16.854628785370465, 79.23671826472908 -16.718542840334834, 79.8566805736057 -16.342718045390892 M79.8566805736057 -16.342718045390892 C80.18520333104843 -16.113554791319803, 80.51372608849115 -15.884391537248716, 80.88190534457871 -15.627565626425154 M79.8566805736057 -16.342718045390892 C80.1976241409915 -16.10489057199172, 80.53856770837729 -15.86706309859255, 80.88190534457871 -15.627565626425154 M80.88190534457871 -15.627565626425154 C81.10606962798151 -15.448800575673522, 81.33023391138433 -15.270035524921889, 81.85920370850187 -14.848196188198123 M80.88190534457871 -15.627565626425154 C81.12186808679216 -15.436201725186677, 81.36183082900561 -15.244837823948199, 81.85920370850187 -14.848196188198123 M81.85920370850187 -14.848196188198123 C82.14050510659159 -14.59272570128018, 82.42180650468131 -14.337255214362237, 82.78455973676799 -14.007812326905688 M81.85920370850187 -14.848196188198123 C82.09153452989827 -14.637199483342595, 82.32386535129467 -14.426202778487065, 82.78455973676799 -14.007812326905688 M82.78455973676799 -14.007812326905688 C83.03117159270614 -13.753165338439624, 83.2777834486443 -13.498518349973562, 83.65417094296865 -13.10986736009568 M82.78455973676799 -14.007812326905688 C83.1257848320476 -13.655469400928148, 83.46700992732723 -13.303126474950608, 83.65417094296865 -13.10986736009568 M83.65417094296865 -13.10986736009568 C83.89520230020526 -12.8267382128128, 84.13623365744186 -12.543609065529916, 84.46446390812658 -12.158051136245305 M83.65417094296865 -13.10986736009568 C83.89886861179401 -12.8224315546016, 84.1435662806194 -12.534995749107521, 84.46446390812658 -12.158051136245305 M84.46446390812658 -12.158051136245305 C84.70181617910839 -11.840020716366388, 84.93916845009021 -11.52199029648747, 85.21210896464063 -11.156274872382312 M84.46446390812658 -12.158051136245305 C84.74062918603681 -11.788014823019987, 85.01679446394704 -11.41797850979467, 85.21210896464063 -11.156274872382312 M85.21210896464063 -11.156274872382312 C85.47665912014386 -10.749854791865825, 85.7412092756471 -10.343434711349339, 85.89403387860425 -10.108655082055241 M85.21210896464063 -11.156274872382312 C85.38318032372949 -10.893463325729844, 85.55425168281833 -10.630651779077377, 85.89403387860425 -10.108655082055241 M85.89403387860425 -10.108655082055241 C86.01960340839486 -9.885693666618325, 86.14517293818547 -9.662732251181406, 86.5074364742735 -9.019496659696287 M85.89403387860425 -10.108655082055241 C86.04783923531286 -9.83555809673788, 86.2016445920215 -9.562461111420518, 86.5074364742735 -9.019496659696287 M86.5074364742735 -9.019496659696287 C86.7040025252904 -8.611323048919973, 86.9005685763073 -8.203149438143658, 87.04979614880834 -7.893275190886684 M86.5074364742735 -9.019496659696287 C86.64864311212143 -8.726278054867013, 86.78984974996936 -8.433059450037739, 87.04979614880834 -7.893275190886684 M87.04979614880834 -7.893275190886684 C87.22822186539389 -7.452560221293837, 87.40664758197943 -7.01184525170099, 87.51888422997033 -6.734618561215508 M87.04979614880834 -7.893275190886684 C87.19173466534777 -7.542684310839766, 87.33367318188719 -7.1920934307928475, 87.51888422997033 -6.734618561215508 M87.51888422997033 -6.734618561215508 C87.67633016861743 -6.260416479614062, 87.83377610726454 -5.786214398012615, 87.91277313421489 -5.548287939305138 M87.51888422997033 -6.734618561215508 C87.65469434814793 -6.325580123668376, 87.79050446632552 -5.916541686121244, 87.91277313421489 -5.548287939305138 M87.91277313421489 -5.548287939305138 C88.0200563550596 -5.1391705213822485, 88.12733957590429 -4.730053103459359, 88.22984428754556 -4.339158212148133 M87.91277313421489 -5.548287939305138 C88.03192416301282 -5.093913426116055, 88.15107519181076 -4.639538912926971, 88.22984428754556 -4.339158212148133 M88.22984428754556 -4.339158212148133 C88.27892011509114 -4.087164209881405, 88.32799594263672 -3.835170207614677, 88.46879477658177 -3.1121979531509023 M88.22984428754556 -4.339158212148133 C88.32473390024836 -3.8519201058459656, 88.41962351295118 -3.364681999543798, 88.46879477658177 -3.1121979531509023 M88.46879477658177 -3.1121979531509023 C88.52019402346708 -2.7135555442377854, 88.5715932703524 -2.314913135324668, 88.62864270250937 -1.872449005199798 M88.46879477658177 -3.1121979531509023 C88.52894914231324 -2.6456525713607815, 88.5891035080447 -2.1791071895706606, 88.62864270250937 -1.872449005199798 M88.62864270250937 -1.872449005199798 C88.65896749881065 -1.4001158250723689, 88.68929229511193 -0.9277826449449398, 88.70873121591342 -0.6250057626472757 M88.62864270250937 -1.872449005199798 C88.65964644407255 -1.3895407045835855, 88.69065018563572 -0.9066324039673731, 88.70873121591342 -0.6250057626472757 M88.70873121591342 -0.6250057626472757 C88.70873121591342 -0.15114768636278275, 88.70873121591342 0.3227103899217102, 88.70873121591342 0.625005762647271 M88.70873121591342 -0.6250057626472757 C88.70873121591342 -0.2551691223746328, 88.70873121591342 0.11466751789801011, 88.70873121591342 0.625005762647271 M88.70873121591342 0.625005762647271 C88.67740772824557 1.112894366938147, 88.64608424057772 1.6007829712290231, 88.62864270250937 1.8724490051997846 M88.70873121591342 0.625005762647271 C88.68776440259116 0.9515808042485969, 88.6667975892689 1.278155845849923, 88.62864270250937 1.8724490051997846 M88.62864270250937 1.8724490051997846 C88.56990716468505 2.3279902379213477, 88.51117162686073 2.783531470642911, 88.46879477658177 3.1121979531508885 M88.62864270250937 1.8724490051997846 C88.57635780213772 2.2779603676609117, 88.52407290176606 2.6834717301220388, 88.46879477658177 3.1121979531508885 M88.46879477658177 3.1121979531508885 C88.39614359864727 3.485246397012646, 88.32349242071278 3.8582948408744033, 88.22984428754556 4.339158212148129 M88.46879477658177 3.1121979531508885 C88.40962067341489 3.4160444664617216, 88.350446570248 3.719890979772555, 88.22984428754556 4.339158212148129 M88.22984428754556 4.339158212148129 C88.12660471320943 4.732855453406346, 88.0233651388733 5.126552694664563, 87.91277313421489 5.548287939305125 M88.22984428754556 4.339158212148129 C88.15339435838399 4.630694925650088, 88.07694442922242 4.922231639152047, 87.91277313421489 5.548287939305125 M87.91277313421489 5.548287939305125 C87.81712672965327 5.836359670659673, 87.72148032509165 6.1244314020142205, 87.51888422997033 6.734618561215495 M87.91277313421489 5.548287939305125 C87.77045831359001 5.976917504239857, 87.62814349296515 6.405547069174589, 87.51888422997033 6.734618561215495 M87.51888422997033 6.734618561215495 C87.34990620753287 7.151997543603818, 87.18092818509542 7.569376525992141, 87.04979614880834 7.893275190886679 M87.51888422997033 6.734618561215495 C87.39010571678304 7.052703978551264, 87.26132720359576 7.370789395887034, 87.04979614880834 7.893275190886679 M87.04979614880834 7.893275190886679 C86.90698057461013 8.18983478647304, 86.76416500041191 8.486394382059402, 86.5074364742735 9.019496659696284 M87.04979614880834 7.893275190886679 C86.89019884896744 8.22468239884148, 86.73060154912655 8.556089606796283, 86.5074364742735 9.019496659696284 M86.5074364742735 9.019496659696284 C86.36632138086546 9.27006079749496, 86.22520628745742 9.520624935293636, 85.89403387860425 10.108655082055236 M86.5074364742735 9.019496659696284 C86.30652559168635 9.376234276162704, 86.1056147090992 9.732971892629125, 85.89403387860425 10.108655082055236 M85.89403387860425 10.108655082055236 C85.66713354503301 10.457234925691415, 85.44023321146176 10.805814769327593, 85.21210896464065 11.156274872382301 M85.89403387860425 10.108655082055236 C85.71197706078297 10.388343243329423, 85.5299202429617 10.668031404603608, 85.21210896464065 11.156274872382301 M85.21210896464065 11.156274872382301 C84.92285234568833 11.543852389958326, 84.63359572673599 11.931429907534351, 84.46446390812659 12.158051136245302 M85.21210896464065 11.156274872382301 C84.96718621270941 11.484449047048447, 84.72226346077817 11.812623221714594, 84.46446390812659 12.158051136245302 M84.46446390812659 12.158051136245302 C84.16416746972364 12.510796420144821, 83.86387103132068 12.863541704044339, 83.65417094296866 13.10986736009567 M84.46446390812659 12.158051136245302 C84.16073642200875 12.514826724022864, 83.85700893589092 12.871602311800427, 83.65417094296866 13.10986736009567 M83.65417094296866 13.10986736009567 C83.35203356565108 13.42184900811608, 83.04989618833349 13.733830656136488, 82.78455973676799 14.007812326905684 M83.65417094296866 13.10986736009567 C83.45061406203259 13.320056551992908, 83.2470571810965 13.530245743890145, 82.78455973676799 14.007812326905684 M82.78455973676799 14.007812326905684 C82.53335895643242 14.235946229198017, 82.28215817609684 14.46408013149035, 81.8592037085019 14.848196188198111 M82.78455973676799 14.007812326905684 C82.49328691469667 14.272338597254304, 82.20201409262533 14.536864867602926, 81.8592037085019 14.848196188198111 M81.8592037085019 14.848196188198111 C81.52294395629103 15.116354392338458, 81.18668420408018 15.384512596478805, 80.88190534457871 15.627565626425152 M81.8592037085019 14.848196188198111 C81.4838134109294 15.14755996095682, 81.1084231133569 15.446923733715526, 80.88190534457871 15.627565626425152 M80.88190534457871 15.627565626425152 C80.63518423798666 15.799667589999197, 80.38846313139462 15.971769553573244, 79.8566805736057 16.34271804539089 M80.88190534457871 15.627565626425152 C80.50334827189856 15.891630652855268, 80.12479119921842 16.155695679285383, 79.8566805736057 16.34271804539089 M79.8566805736057 16.34271804539089 C79.52434637477003 16.544180989737605, 79.19201217593437 16.745643934084324, 78.78774226407678 16.990714730406093 M79.8566805736057 16.34271804539089 C79.46511784016812 16.58008567547879, 79.07355510673054 16.81745330556669, 78.78774226407678 16.990714730406093 M78.78774226407678 16.990714730406093 C78.51999863146645 17.13039641204092, 78.25225499885612 17.27007809367575, 77.67948291279238 17.56889292409717 M78.78774226407678 16.990714730406093 C78.378438276915 17.204248358336677, 77.96913428975321 17.417781986267265, 77.67948291279238 17.56889292409717 M77.67948291279238 17.56889292409717 C77.33951043996922 17.7193886528909, 76.99953796714604 17.869884381684628, 76.5364565951478 18.07487676824742 M77.67948291279238 17.56889292409717 C77.33063936698218 17.72331561375123, 76.98179582117197 17.877738303405287, 76.5364565951478 18.07487676824742 M76.5364565951478 18.07487676824742 C76.1954195220433 18.200381563662027, 75.85438244893878 18.32588635907663, 75.36336025146062 18.506587066708033 M76.5364565951478 18.07487676824742 C76.18518911857365 18.204146446707668, 75.8339216419995 18.333416125167915, 75.36336025146062 18.506587066708033 M75.36336025146062 18.506587066708033 C75.11218581339931 18.581134321483102, 74.861011375338 18.65568157625817, 74.16501438623541 18.86224982926107 M75.36336025146062 18.506587066708033 C75.07454026464188 18.592307322748788, 74.78572027782313 18.678027578789546, 74.16501438623541 18.86224982926107 M74.16501438623541 18.86224982926107 C73.75059934156009 18.956837358897314, 73.33618429688477 19.05142488853356, 72.94634325967677 19.140403561325773 M74.16501438623541 18.86224982926107 C73.88951163766113 18.9251315337997, 73.61400888908686 18.98801323833833, 72.94634325967677 19.140403561325773 M72.94634325967677 19.140403561325773 C72.49331057583773 19.213646372327936, 72.04027789199867 19.2868891833301, 71.71235465284788 19.3399052695533 M72.94634325967677 19.140403561325773 C72.69773405342154 19.18059676979993, 72.4491248471663 19.220789978274087, 71.71235465284788 19.3399052695533 M71.71235465284788 19.3399052695533 C71.3383320465523 19.375986780554637, 70.96430944025673 19.412068291555975, 70.4681192896239 19.45993515863156 M71.71235465284788 19.3399052695533 C71.28536566136796 19.38109638403197, 70.85837666988806 19.422287498510645, 70.4681192896239 19.45993515863156 M70.4681192896239 19.45993515863156 C69.98481942094108 19.47543364473409, 69.50151955225824 19.490932130836622, 69.21875 19.5 M70.4681192896239 19.45993515863156 C70.03938846428201 19.473683721726346, 69.61065763894014 19.487432284821132, 69.21875 19.5 M69.21875 19.5 C69.21875 19.5, 69.21875 19.5, 69.21875 19.5 M69.21875 19.5 C69.21875 19.5, 69.21875 19.5, 69.21875 19.5 M69.21875 19.5 C23.649384159711346 19.5, -21.91998168057731 19.5, -69.21875 19.5 M69.21875 19.5 C29.0204217223622 19.5, -11.177906555275598 19.5, -69.21875 19.5 M-69.21875 19.5 C-69.51868044278514 19.490381814479072, -69.81861088557028 19.480763628958144, -70.4681192896239 19.45993515863156 M-69.21875 19.5 C-69.66420407944474 19.485715154695974, -70.10965815888949 19.47143030939195, -70.4681192896239 19.45993515863156 M-70.4681192896239 19.45993515863156 C-70.94914430723173 19.413531253700153, -71.43016932483955 19.36712734876875, -71.71235465284786 19.3399052695533 M-70.4681192896239 19.45993515863156 C-70.95986849543775 19.412496704161644, -71.45161770125158 19.365058249691728, -71.71235465284786 19.3399052695533 M-71.71235465284786 19.3399052695533 C-72.03778883228742 19.287291595201264, -72.36322301172697 19.234677920849233, -72.94634325967675 19.140403561325773 M-71.71235465284786 19.3399052695533 C-72.20367586186022 19.260472266733064, -72.69499707087257 19.181039263912826, -72.94634325967675 19.140403561325773 M-72.94634325967675 19.140403561325773 C-73.2801212558557 19.06422091180291, -73.61389925203464 18.988038262280043, -74.16501438623538 18.862249829261074 M-72.94634325967675 19.140403561325773 C-73.32524213349652 19.053922365922634, -73.70414100731628 18.9674411705195, -74.16501438623538 18.862249829261074 M-74.16501438623538 18.862249829261074 C-74.6081554416462 18.73072789011001, -75.05129649705702 18.59920595095895, -75.36336025146059 18.506587066708043 M-74.16501438623538 18.862249829261074 C-74.4338289731047 18.782467070914826, -74.70264355997399 18.702684312568575, -75.36336025146059 18.506587066708043 M-75.36336025146059 18.506587066708043 C-75.68256250055514 18.389117688368007, -76.00176474964967 18.271648310027974, -76.5364565951478 18.074876768247425 M-75.36336025146059 18.506587066708043 C-75.61923786521439 18.412421739539912, -75.87511547896818 18.31825641237178, -76.5364565951478 18.074876768247425 M-76.5364565951478 18.074876768247425 C-76.85290619672037 17.934793916775153, -77.16935579829294 17.79471106530288, -77.67948291279238 17.568892924097174 M-76.5364565951478 18.074876768247425 C-76.9256418595919 17.902595996448703, -77.31482712403601 17.730315224649978, -77.67948291279238 17.568892924097174 M-77.67948291279238 17.568892924097174 C-77.90790193649724 17.449726865739713, -78.13632096020211 17.330560807382255, -78.78774226407678 16.990714730406097 M-77.67948291279238 17.568892924097174 C-77.99482770734426 17.40437774676744, -78.31017250189615 17.239862569437705, -78.78774226407678 16.990714730406097 M-78.78774226407678 16.990714730406097 C-79.12996393077847 16.783257944933787, -79.47218559748016 16.575801159461477, -79.85668057360569 16.3427180453909 M-78.78774226407678 16.990714730406097 C-79.16492850296476 16.762062215799833, -79.54211474185271 16.53340970119357, -79.85668057360569 16.3427180453909 M-79.85668057360569 16.3427180453909 C-80.12906553926982 16.152714084698722, -80.40145050493395 15.962710124006545, -80.88190534457871 15.627565626425156 M-79.85668057360569 16.3427180453909 C-80.26424371303352 16.058419642449994, -80.67180685246134 15.77412123950909, -80.88190534457871 15.627565626425156 M-80.88190534457871 15.627565626425156 C-81.09703166203828 15.456008113002882, -81.31215797949784 15.28445059958061, -81.85920370850187 14.848196188198125 M-80.88190534457871 15.627565626425156 C-81.26979888771501 15.318230848054649, -81.65769243085131 15.008896069684141, -81.85920370850187 14.848196188198125 M-81.85920370850187 14.848196188198125 C-82.159695136907 14.575297823488103, -82.46018656531213 14.30239945877808, -82.78455973676797 14.007812326905697 M-81.85920370850187 14.848196188198125 C-82.07060706592242 14.656205252415104, -82.28201042334298 14.464214316632082, -82.78455973676797 14.007812326905697 M-82.78455973676797 14.007812326905697 C-83.0528379453703 13.730793050473235, -83.32111615397264 13.453773774040773, -83.65417094296865 13.109867360095677 M-82.78455973676797 14.007812326905697 C-83.07203147906628 13.710974151113712, -83.35950322136459 13.414135975321727, -83.65417094296865 13.109867360095677 M-83.65417094296865 13.109867360095677 C-83.8660601625263 12.860970225965115, -84.07794938208394 12.612073091834553, -84.46446390812658 12.158051136245307 M-83.65417094296865 13.109867360095677 C-83.8278698649682 12.905830722566344, -84.00156878696775 12.70179408503701, -84.46446390812658 12.158051136245307 M-84.46446390812658 12.158051136245307 C-84.70242778822968 11.8392012158626, -84.9403916683328 11.520351295479893, -85.21210896464063 11.156274872382316 M-84.46446390812658 12.158051136245307 C-84.65446407684432 11.903468219534986, -84.84446424556207 11.648885302824667, -85.21210896464063 11.156274872382316 M-85.21210896464063 11.156274872382316 C-85.38424369010349 10.891829709425531, -85.55637841556634 10.627384546468745, -85.89403387860425 10.108655082055249 M-85.21210896464063 11.156274872382316 C-85.42465270092846 10.829750617459622, -85.6371964372163 10.503226362536926, -85.89403387860425 10.108655082055249 M-85.89403387860425 10.108655082055249 C-86.07376671978056 9.789521222622998, -86.25349956095688 9.47038736319075, -86.5074364742735 9.019496659696289 M-85.89403387860425 10.108655082055249 C-86.13155521514123 9.686911897390427, -86.36907655167823 9.265168712725607, -86.5074364742735 9.019496659696289 M-86.5074364742735 9.019496659696289 C-86.62102247947946 8.783632889534923, -86.73460848468544 8.547769119373557, -87.04979614880834 7.893275190886686 M-86.5074364742735 9.019496659696289 C-86.6562122748552 8.710560526496193, -86.80498807543692 8.401624393296098, -87.04979614880834 7.893275190886686 M-87.04979614880834 7.893275190886686 C-87.18839903451841 7.550923383478309, -87.32700192022848 7.208571576069932, -87.51888422997033 6.73461856121551 M-87.04979614880834 7.893275190886686 C-87.23678789526467 7.431401961900083, -87.423779641721 6.969528732913481, -87.51888422997033 6.73461856121551 M-87.51888422997033 6.73461856121551 C-87.6197861712592 6.430717990594534, -87.72068811254807 6.126817419973557, -87.91277313421489 5.5482879393051325 M-87.51888422997033 6.73461856121551 C-87.62252620555455 6.4224654438621025, -87.72616818113879 6.110312326508695, -87.91277313421489 5.5482879393051325 M-87.91277313421489 5.5482879393051325 C-88.03747594668323 5.072742068822546, -88.16217875915156 4.597196198339958, -88.22984428754556 4.339158212148136 M-87.91277313421489 5.5482879393051325 C-88.03160102066589 5.0951457079357105, -88.15042890711689 4.642003476566288, -88.22984428754556 4.339158212148136 M-88.22984428754556 4.339158212148136 C-88.29390851024196 4.010201968580372, -88.35797273293836 3.681245725012607, -88.46879477658177 3.112197953150904 M-88.22984428754556 4.339158212148136 C-88.31028582883236 3.9261078989661367, -88.39072737011918 3.5130575857841375, -88.46879477658177 3.112197953150904 M-88.46879477658177 3.112197953150904 C-88.52881509280874 2.646692232846575, -88.58883540903571 2.1811865125422463, -88.62864270250937 1.872449005199809 M-88.46879477658177 3.112197953150904 C-88.52742885806778 2.6574435957544913, -88.58606293955378 2.2026892383580785, -88.62864270250937 1.872449005199809 M-88.62864270250937 1.872449005199809 C-88.64920759279875 1.5521342392621644, -88.66977248308811 1.2318194733245198, -88.70873121591342 0.6250057626472781 M-88.62864270250937 1.872449005199809 C-88.65649512877894 1.438624983977242, -88.68434755504853 1.004800962754675, -88.70873121591342 0.6250057626472781 M-88.70873121591342 0.6250057626472781 C-88.70873121591342 0.3395035101052597, -88.70873121591342 0.054001257563241256, -88.70873121591342 -0.6250057626472687 M-88.70873121591342 0.6250057626472781 C-88.70873121591342 0.18304160060494606, -88.70873121591342 -0.258922561437386, -88.70873121591342 -0.6250057626472687 M-88.70873121591342 -0.6250057626472687 C-88.68466953269505 -0.9997859010144576, -88.66060784947668 -1.3745660393816466, -88.62864270250937 -1.8724490051997822 M-88.70873121591342 -0.6250057626472687 C-88.6924336973365 -0.8788527696031182, -88.67613617875956 -1.1326997765589677, -88.62864270250937 -1.8724490051997822 M-88.62864270250937 -1.8724490051997822 C-88.57555364310366 -2.2841972663299153, -88.52246458369794 -2.695945527460048, -88.46879477658177 -3.112197953150895 M-88.62864270250937 -1.8724490051997822 C-88.56944582881381 -2.3315682678376195, -88.51024895511824 -2.7906875304754566, -88.46879477658177 -3.112197953150895 M-88.46879477658177 -3.112197953150895 C-88.3903042131007 -3.5152304076397467, -88.31181364961962 -3.918262862128598, -88.22984428754556 -4.339158212148126 M-88.46879477658177 -3.112197953150895 C-88.3880823274138 -3.5266393210462614, -88.30736987824584 -3.9410806889416277, -88.22984428754556 -4.339158212148126 M-88.22984428754556 -4.339158212148126 C-88.12017549271901 -4.757372857578071, -88.01050669789248 -5.175587503008016, -87.91277313421489 -5.548287939305123 M-88.22984428754556 -4.339158212148126 C-88.1054712278037 -4.81344659256889, -87.98109816806185 -5.287734972989654, -87.91277313421489 -5.548287939305123 M-87.91277313421489 -5.548287939305123 C-87.777452872371 -5.95585100762314, -87.64213261052711 -6.363414075941157, -87.51888422997033 -6.734618561215485 M-87.91277313421489 -5.548287939305123 C-87.78070572924119 -5.946053921002463, -87.64863832426751 -6.343819902699803, -87.51888422997033 -6.734618561215485 M-87.51888422997033 -6.734618561215485 C-87.40161493517277 -7.024275986613022, -87.28434564037522 -7.313933412010558, -87.04979614880834 -7.893275190886676 M-87.51888422997033 -6.734618561215485 C-87.41274771728898 -6.996777799548282, -87.30661120460763 -7.258937037881079, -87.04979614880834 -7.893275190886676 M-87.04979614880834 -7.893275190886676 C-86.83759070190176 -8.333924341857397, -86.62538525499517 -8.774573492828118, -86.5074364742735 -9.019496659696282 M-87.04979614880834 -7.893275190886676 C-86.91157295069065 -8.1802986192807, -86.77334975257298 -8.467322047674726, -86.5074364742735 -9.019496659696282 M-86.5074364742735 -9.019496659696282 C-86.37977587994239 -9.246170971968105, -86.25211528561128 -9.47284528423993, -85.89403387860425 -10.108655082055243 M-86.5074364742735 -9.019496659696282 C-86.3094606856012 -9.37102271970642, -86.11148489692889 -9.722548779716561, -85.89403387860425 -10.108655082055243 M-85.89403387860425 -10.108655082055243 C-85.68874336587496 -10.424036437828779, -85.48345285314566 -10.739417793602312, -85.21210896464063 -11.156274872382308 M-85.89403387860425 -10.108655082055243 C-85.7394826296812 -10.346087303222314, -85.58493138075816 -10.583519524389386, -85.21210896464063 -11.156274872382308 M-85.21210896464063 -11.156274872382308 C-84.95409291446136 -11.501992873876821, -84.69607686428208 -11.847710875371334, -84.46446390812659 -12.158051136245302 M-85.21210896464063 -11.156274872382308 C-84.96041747116719 -11.49351854406996, -84.70872597769376 -11.830762215757611, -84.46446390812659 -12.158051136245302 M-84.46446390812659 -12.158051136245302 C-84.28617515101753 -12.367479255263275, -84.10788639390847 -12.576907374281248, -83.65417094296866 -13.10986736009567 M-84.46446390812659 -12.158051136245302 C-84.16655603254642 -12.5079906783401, -83.86864815696626 -12.857930220434897, -83.65417094296866 -13.10986736009567 M-83.65417094296866 -13.10986736009567 C-83.37267358554062 -13.400536493002976, -83.09117622811259 -13.691205625910282, -82.78455973676799 -14.007812326905677 M-83.65417094296866 -13.10986736009567 C-83.4365026728897 -13.334627719849516, -83.21883440281076 -13.559388079603362, -82.78455973676799 -14.007812326905677 M-82.78455973676799 -14.007812326905677 C-82.54333039293506 -14.226890434396067, -82.30210104910212 -14.445968541886456, -81.8592037085019 -14.848196188198107 M-82.78455973676799 -14.007812326905677 C-82.53201621847765 -14.237165668281625, -82.27947270018733 -14.466519009657574, -81.8592037085019 -14.848196188198107 M-81.8592037085019 -14.848196188198107 C-81.51637295908532 -15.121594587748433, -81.17354220966875 -15.394992987298757, -80.88190534457871 -15.627565626425149 M-81.8592037085019 -14.848196188198107 C-81.61640550295192 -15.04182129599261, -81.37360729740195 -15.235446403787114, -80.88190534457871 -15.627565626425149 M-80.88190534457871 -15.627565626425149 C-80.5278104386291 -15.874566904294168, -80.17371553267951 -16.121568182163188, -79.85668057360571 -16.342718045390885 M-80.88190534457871 -15.627565626425149 C-80.64018500567981 -15.796179270936205, -80.3984646667809 -15.964792915447262, -79.85668057360571 -16.342718045390885 M-79.85668057360571 -16.342718045390885 C-79.5490207521804 -16.52922323714871, -79.24136093075508 -16.715728428906534, -78.78774226407678 -16.99071473040609 M-79.85668057360571 -16.342718045390885 C-79.48776525297362 -16.566356680745127, -79.11884993234152 -16.78999531609937, -78.78774226407678 -16.99071473040609 M-78.78774226407678 -16.99071473040609 C-78.48395074432575 -17.14920257167245, -78.18015922457471 -17.307690412938815, -77.6794829127924 -17.56889292409717 M-78.78774226407678 -16.99071473040609 C-78.54943822083102 -17.11503779712638, -78.31113417758526 -17.239360863846674, -77.6794829127924 -17.56889292409717 M-77.6794829127924 -17.56889292409717 C-77.23867309223036 -17.764026355501255, -76.79786327166832 -17.95915978690534, -76.53645659514781 -18.07487676824742 M-77.6794829127924 -17.56889292409717 C-77.34056323183185 -17.71892261316328, -77.0016435508713 -17.868952302229385, -76.53645659514781 -18.07487676824742 M-76.53645659514781 -18.07487676824742 C-76.23327145065407 -18.186451704033868, -75.93008630616035 -18.298026639820314, -75.36336025146062 -18.506587066708033 M-76.53645659514781 -18.07487676824742 C-76.0969060971501 -18.23663541467084, -75.6573555991524 -18.39839406109426, -75.36336025146062 -18.506587066708033 M-75.36336025146062 -18.506587066708033 C-74.98268811626092 -18.619568558246492, -74.60201598106121 -18.73255004978495, -74.16501438623541 -18.862249829261067 M-75.36336025146062 -18.506587066708033 C-75.09567415844666 -18.5860348940016, -74.8279880654327 -18.665482721295167, -74.16501438623541 -18.862249829261067 M-74.16501438623541 -18.862249829261067 C-73.8692385505915 -18.929758733629086, -73.57346271494758 -18.9972676379971, -72.94634325967677 -19.140403561325773 M-74.16501438623541 -18.862249829261067 C-73.88187846787466 -18.926873754992375, -73.59874254951389 -18.99149768072368, -72.94634325967677 -19.140403561325773 M-72.94634325967677 -19.140403561325773 C-72.6248689328681 -19.19237703741356, -72.30339460605943 -19.24435051350135, -71.71235465284788 -19.3399052695533 M-72.94634325967677 -19.140403561325773 C-72.69845496112009 -19.18048021903395, -72.45056666256343 -19.220556876742126, -71.71235465284788 -19.3399052695533 M-71.71235465284788 -19.3399052695533 C-71.45422499299438 -19.36480672739303, -71.19609533314089 -19.38970818523276, -70.4681192896239 -19.45993515863156 M-71.71235465284788 -19.3399052695533 C-71.37960624360373 -19.37200510840457, -71.04685783435959 -19.404104947255842, -70.4681192896239 -19.45993515863156 M-70.4681192896239 -19.45993515863156 C-70.03188115604213 -19.47392446648951, -69.59564302246037 -19.48791377434746, -69.21875 -19.5 M-70.4681192896239 -19.45993515863156 C-70.19359409944998 -19.46873864714957, -69.91906890927608 -19.47754213566758, -69.21875 -19.5 M-69.21875 -19.5 C-69.21875 -19.5, -69.21875 -19.5, -69.21875 -19.5 M-69.21875 -19.5 C-69.21875 -19.5, -69.21875 -19.5, -69.21875 -19.5" stroke="#5eead4" stroke-width="2" fill="none" stroke-dasharray="0 0" style="fill:#134e4a !important;stroke:#5eead4 !important;stroke-width:2px !important"/></g><g class="label" style="color:#f0fdfa !important" transform="translate(-76.34375, -12)"><rect/><foreignObject width="152.6875" height="24"><div style="color: rgb(240, 253, 250) !important; display: table-cell; white-space: nowrap; line-height: 1.5; max-width: 200px; text-align: center;" xmlns="http://www.w3.org/1999/xhtml"><span style="color:#f0fdfa !important" class="nodeLabel"><p>No secret reassembly</p></span></div></foreignObject></g></g></g></g></g><defs><filter id="my-svg-drop-shadow" height="130%" width="130%"><feDropShadow dx="4" dy="4" stdDeviation="0" flood-opacity="0.06" flood-color="#000000"/></filter></defs><defs><filter id="my-svg-drop-shadow-small" height="150%" width="150%"><feDropShadow dx="2" dy="2" stdDeviation="0" flood-opacity="0.06" flood-color="#000000"/></filter></defs></svg>